<svg xmlns="http://www.w3.org/2000/svg" viewBox="0 0 224 214">
    <g stroke-width="2" fill="none" stroke="#7a7a7b">
        <path vector-effect="non-scaling-stroke"
            d="M65.36 169.25q-6.21 13.42 1.99 23.16c15.94 18.95 44.52-.2 33.61-22.83q-.25-.5.31-.5h54.72q.69 0 .37.61c-9.61 18.55 10 37.53 28.15 27.52 15.24-8.41 12.49-30.99-3.57-36.72q-3.55-1.27-9.55-1.26l-101.89.08c-9.4.01-15.11-9.03-10.93-17.53 2.24-4.56 6.79-6.02 11.99-6.02q53.49-.03 106.98-.01c7.33 0 9.6-3.46 10.67-10.5q5.77-38.02 11.56-76.05.58-3.81-.04-5.88c-1.66-5.59-6.11-6.09-11.8-6.09q-68.65.05-137.31 0-.51 0-.65-.48l-8.15-27.5q-.14-.47-.63-.48-10.49-.05-20.97-.02-3.58.01-4.88.56c-3.26 1.4-3.42 7.09-.08 8.71q1.26.62 4.07.61 7.15-.03 14.37.03.59 0 .76.57l31.46 106.24q.12.4-.29.5-15.03 3.69-17.72 16.7c-2.62 12.67 4.61 23.3 17.22 26.12q.4.09.23.46" />
        <path vector-effect="non-scaling-stroke"
            d="M53.45 47.08a.32.32 0 00-.31.41l23.15 78.24a.32.32 0 00.31.23h101.24a.32.32 0 00.32-.27l11.9-78.24a.32.32 0 00-.31-.37H53.45M93.6 179.59a10.51 10.51 0 00-10.51-10.51 10.51 10.51 0 00-10.51 10.51 10.51 10.51 0 0010.51 10.51 10.51 10.51 0 0010.51-10.51m91.13-.01a10.51 10.51 0 00-10.51-10.51 10.51 10.51 0 00-10.51 10.51 10.51 10.51 0 0010.51 10.51 10.51 10.51 0 0010.51-10.51" />
        <path vector-effect="non-scaling-stroke"
            d="M120.04 86.23c-2.48 2.53-8.19 7.06-9.47 10.12-2.12 5.08 4.46 8.92 8.38 4.84q3.92-4.07 8.09-7.96.39-.36.77.01c2.46 2.43 7.19 8.27 10.2 9.43 4.67 1.79 8.76-4.47 5.37-7.8q-4.34-4.28-8.61-8.67-.36-.37 0-.74c2.54-2.58 8.46-7.43 9.6-10.54 1.21-3.26-2.5-7.17-6-6.1-2.93.89-8.18 7.2-10.55 9.59q-.36.36-.74.02-5.63-5.19-7.43-7.31c-5.14-6.02-13.34.57-7.15 6.77q3.78 3.79 7.54 7.58.37.38 0 .76" />
    </g>
</svg>