<svg width="32" height="32" viewBox="0 0 32 32" fill="none" xmlns="http://www.w3.org/2000/svg">
<g clip-path="url(#clip0_4_59)">
<path d="M8.66667 2.66669H23.3333C23.5403 2.66669 23.7445 2.71488 23.9296 2.80745C24.1148 2.90002 24.2758 3.03443 24.4 3.20002L28 8.00002V28C28 28.3536 27.8595 28.6928 27.6095 28.9428C27.3594 29.1929 27.0203 29.3334 26.6667 29.3334H5.33333C4.97971 29.3334 4.64057 29.1929 4.39052 28.9428C4.14048 28.6928 4 28.3536 4 28V8.00002L7.6 3.20002C7.7242 3.03443 7.88524 2.90002 8.07038 2.80745C8.25552 2.71488 8.45967 2.66669 8.66667 2.66669ZM24.6667 8.00002L22.6667 5.33335H9.33333L7.33333 8.00002H24.6667ZM12 13.3334H9.33333V16C9.33333 17.7681 10.0357 19.4638 11.286 20.7141C12.5362 21.9643 14.2319 22.6667 16 22.6667C17.7681 22.6667 19.4638 21.9643 20.714 20.7141C21.9643 19.4638 22.6667 17.7681 22.6667 16V13.3334H20V16C20 17.0609 19.5786 18.0783 18.8284 18.8284C18.0783 19.5786 17.0609 20 16 20C14.9391 20 13.9217 19.5786 13.1716 18.8284C12.4214 18.0783 12 17.0609 12 16V13.3334Z" fill="white"/>
</g>
<defs>
<clipPath id="clip0_4_59">
<rect width="32" height="32" fill="white"/>
</clipPath>
</defs>
</svg>
