<?xml version="1.0" encoding="UTF-8" standalone="no"?>
<!DOCTYPE svg PUBLIC "-//W3C//DTD SVG 1.1//EN" "http://www.w3.org/Graphics/SVG/1.1/DTD/svg11.dtd">
<svg xmlns="http://www.w3.org/2000/svg" version="1.1" viewBox="0.00 0.00 224.00 214.00">
<g stroke-width="2.00" fill="none" stroke-linecap="butt">
<path stroke="#7a7a7b" vector-effect="non-scaling-stroke" d="
  M 65.36 169.25
  Q 59.15 182.67 67.35 192.41
  C 83.29 211.36 111.87 192.21 100.96 169.58
  Q 100.71 169.08 101.27 169.08
  L 155.99 169.08
  Q 156.68 169.08 156.36 169.69
  C 146.75 188.24 166.36 207.22 184.51 197.21
  C 199.75 188.80 197.00 166.22 180.94 160.49
  Q 177.39 159.22 171.39 159.23
  Q 120.45 159.27 69.50 159.31
  C 60.10 159.32 54.39 150.28 58.57 141.78
  C 60.81 137.22 65.36 135.76 70.56 135.76
  Q 124.05 135.73 177.54 135.75
  C 184.87 135.75 187.14 132.29 188.21 125.25
  Q 193.98 87.23 199.77 49.20
  Q 200.35 45.39 199.73 43.32
  C 198.07 37.73 193.62 37.23 187.93 37.23
  Q 119.28 37.28 50.62 37.23
  Q 50.11 37.23 49.97 36.75
  L 41.82 9.25
  Q 41.68 8.78 41.19 8.77
  Q 30.70 8.72 20.22 8.75
  Q 16.64 8.76 15.34 9.31
  C 12.08 10.71 11.92 16.40 15.26 18.02
  Q 16.52 18.64 19.33 18.63
  Q 26.48 18.60 33.70 18.66
  Q 34.29 18.66 34.46 19.23
  L 65.92 125.47
  Q 66.04 125.87 65.63 125.97
  Q 50.60 129.66 47.91 142.67
  C 45.29 155.34 52.52 165.97 65.13 168.79
  Q 65.53 168.88 65.36 169.25"
/>
<path stroke="#7a7a7b" vector-effect="non-scaling-stroke" d="
  M 53.45 47.08
  A 0.32 0.32 0.0 0 0 53.14 47.49
  L 76.29 125.73
  A 0.32 0.32 0.0 0 0 76.60 125.96
  L 177.84 125.96
  A 0.32 0.32 0.0 0 0 178.16 125.69
  L 190.06 47.45
  A 0.32 0.32 0.0 0 0 189.75 47.08
  L 53.45 47.08"
/>
<path stroke="#7a7a7b" vector-effect="non-scaling-stroke" d="
  M 93.60 179.59
  A 10.51 10.51 0.0 0 0 83.09 169.08
  A 10.51 10.51 0.0 0 0 72.58 179.59
  A 10.51 10.51 0.0 0 0 83.09 190.10
  A 10.51 10.51 0.0 0 0 93.60 179.59"
/>
<path stroke="#7a7a7b" vector-effect="non-scaling-stroke" d="
  M 184.73 179.58
  A 10.51 10.51 0.0 0 0 174.22 169.07
  A 10.51 10.51 0.0 0 0 163.71 179.58
  A 10.51 10.51 0.0 0 0 174.22 190.09
  A 10.51 10.51 0.0 0 0 184.73 179.58"
/>
<path stroke="#7a7a7b" vector-effect="non-scaling-stroke" d="
  M 120.04 86.23
  C 117.56 88.76 111.85 93.29 110.57 96.35
  C 108.45 101.43 115.03 105.27 118.95 101.19
  Q 122.87 97.12 127.04 93.23
  Q 127.43 92.87 127.81 93.24
  C 130.27 95.67 135.00 101.51 138.01 102.67
  C 142.68 104.46 146.77 98.20 143.38 94.87
  Q 139.04 90.59 134.77 86.20
  Q 134.41 85.83 134.77 85.46
  C 137.31 82.88 143.23 78.03 144.37 74.92
  C 145.58 71.66 141.87 67.75 138.37 68.82
  C 135.44 69.71 130.19 76.02 127.82 78.41
  Q 127.46 78.77 127.08 78.43
  Q 121.45 73.24 119.65 71.12
  C 114.51 65.10 106.31 71.69 112.50 77.89
  Q 116.28 81.68 120.04 85.47
  Q 120.41 85.85 120.04 86.23"
/>
</g>
<path fill="#f4f4f6" d="
  M 0.00 0.00
  L 224.00 0.00
  L 224.00 214.00
  L 0.00 214.00
  L 0.00 0.00
  Z
  M 65.36 169.25
  Q 59.15 182.67 67.35 192.41
  C 83.29 211.36 111.87 192.21 100.96 169.58
  Q 100.71 169.08 101.27 169.08
  L 155.99 169.08
  Q 156.68 169.08 156.36 169.69
  C 146.75 188.24 166.36 207.22 184.51 197.21
  C 199.75 188.80 197.00 166.22 180.94 160.49
  Q 177.39 159.22 171.39 159.23
  Q 120.45 159.27 69.50 159.31
  C 60.10 159.32 54.39 150.28 58.57 141.78
  C 60.81 137.22 65.36 135.76 70.56 135.76
  Q 124.05 135.73 177.54 135.75
  C 184.87 135.75 187.14 132.29 188.21 125.25
  Q 193.98 87.23 199.77 49.20
  Q 200.35 45.39 199.73 43.32
  C 198.07 37.73 193.62 37.23 187.93 37.23
  Q 119.28 37.28 50.62 37.23
  Q 50.11 37.23 49.97 36.75
  L 41.82 9.25
  Q 41.68 8.78 41.19 8.77
  Q 30.70 8.72 20.22 8.75
  Q 16.64 8.76 15.34 9.31
  C 12.08 10.71 11.92 16.40 15.26 18.02
  Q 16.52 18.64 19.33 18.63
  Q 26.48 18.60 33.70 18.66
  Q 34.29 18.66 34.46 19.23
  L 65.92 125.47
  Q 66.04 125.87 65.63 125.97
  Q 50.60 129.66 47.91 142.67
  C 45.29 155.34 52.52 165.97 65.13 168.79
  Q 65.53 168.88 65.36 169.25
  Z"
/>
<path fill="#000000" d="
  M 65.13 168.79
  C 52.52 165.97 45.29 155.34 47.91 142.67
  Q 50.60 129.66 65.63 125.97
  Q 66.04 125.87 65.92 125.47
  L 34.46 19.23
  Q 34.29 18.66 33.70 18.66
  Q 26.48 18.60 19.33 18.63
  Q 16.52 18.64 15.26 18.02
  C 11.92 16.40 12.08 10.71 15.34 9.31
  Q 16.64 8.76 20.22 8.75
  Q 30.70 8.72 41.19 8.77
  Q 41.68 8.78 41.82 9.25
  L 49.97 36.75
  Q 50.11 37.23 50.62 37.23
  Q 119.28 37.28 187.93 37.23
  C 193.62 37.23 198.07 37.73 199.73 43.32
  Q 200.35 45.39 199.77 49.20
  Q 193.98 87.23 188.21 125.25
  C 187.14 132.29 184.87 135.75 177.54 135.75
  Q 124.05 135.73 70.56 135.76
  C 65.36 135.76 60.81 137.22 58.57 141.78
  C 54.39 150.28 60.10 159.32 69.50 159.31
  Q 120.45 159.27 171.39 159.23
  Q 177.39 159.22 180.94 160.49
  C 197.00 166.22 199.75 188.80 184.51 197.21
  C 166.36 207.22 146.75 188.24 156.36 169.69
  Q 156.68 169.08 155.99 169.08
  L 101.27 169.08
  Q 100.71 169.08 100.96 169.58
  C 111.87 192.21 83.29 211.36 67.35 192.41
  Q 59.15 182.67 65.36 169.25
  Q 65.53 168.88 65.13 168.79
  Z
  M 53.45 47.08
  A 0.32 0.32 0.0 0 0 53.14 47.49
  L 76.29 125.73
  A 0.32 0.32 0.0 0 0 76.60 125.96
  L 177.84 125.96
  A 0.32 0.32 0.0 0 0 178.16 125.69
  L 190.06 47.45
  A 0.32 0.32 0.0 0 0 189.75 47.08
  L 53.45 47.08
  Z
  M 93.60 179.59
  A 10.51 10.51 0.0 0 0 83.09 169.08
  A 10.51 10.51 0.0 0 0 72.58 179.59
  A 10.51 10.51 0.0 0 0 83.09 190.10
  A 10.51 10.51 0.0 0 0 93.60 179.59
  Z
  M 184.73 179.58
  A 10.51 10.51 0.0 0 0 174.22 169.07
  A 10.51 10.51 0.0 0 0 163.71 179.58
  A 10.51 10.51 0.0 0 0 174.22 190.09
  A 10.51 10.51 0.0 0 0 184.73 179.58
  Z"
/>
<path fill="#f4f4f6" d="
  M 53.45 47.08
  L 189.75 47.08
  A 0.32 0.32 0.0 0 1 190.06 47.45
  L 178.16 125.69
  A 0.32 0.32 0.0 0 1 177.84 125.96
  L 76.60 125.96
  A 0.32 0.32 0.0 0 1 76.29 125.73
  L 53.14 47.49
  A 0.32 0.32 0.0 0 1 53.45 47.08
  Z
  M 120.04 86.23
  C 117.56 88.76 111.85 93.29 110.57 96.35
  C 108.45 101.43 115.03 105.27 118.95 101.19
  Q 122.87 97.12 127.04 93.23
  Q 127.43 92.87 127.81 93.24
  C 130.27 95.67 135.00 101.51 138.01 102.67
  C 142.68 104.46 146.77 98.20 143.38 94.87
  Q 139.04 90.59 134.77 86.20
  Q 134.41 85.83 134.77 85.46
  C 137.31 82.88 143.23 78.03 144.37 74.92
  C 145.58 71.66 141.87 67.75 138.37 68.82
  C 135.44 69.71 130.19 76.02 127.82 78.41
  Q 127.46 78.77 127.08 78.43
  Q 121.45 73.24 119.65 71.12
  C 114.51 65.10 106.31 71.69 112.50 77.89
  Q 116.28 81.68 120.04 85.47
  Q 120.41 85.85 120.04 86.23
  Z"
/>
<path fill="#000000" d="
  M 120.04 85.47
  Q 116.28 81.68 112.50 77.89
  C 106.31 71.69 114.51 65.10 119.65 71.12
  Q 121.45 73.24 127.08 78.43
  Q 127.46 78.77 127.82 78.41
  C 130.19 76.02 135.44 69.71 138.37 68.82
  C 141.87 67.75 145.58 71.66 144.37 74.92
  C 143.23 78.03 137.31 82.88 134.77 85.46
  Q 134.41 85.83 134.77 86.20
  Q 139.04 90.59 143.38 94.87
  C 146.77 98.20 142.68 104.46 138.01 102.67
  C 135.00 101.51 130.27 95.67 127.81 93.24
  Q 127.43 92.87 127.04 93.23
  Q 122.87 97.12 118.95 101.19
  C 115.03 105.27 108.45 101.43 110.57 96.35
  C 111.85 93.29 117.56 88.76 120.04 86.23
  Q 120.41 85.85 120.04 85.47
  Z"
/>
<circle fill="#f4f4f6" cx="83.09" cy="179.59" r="10.51"/>
<circle fill="#f4f4f6" cx="174.22" cy="179.58" r="10.51"/>
</svg>
