<svg width="24" height="24" viewBox="0 0 24 24" fill="none" xmlns="http://www.w3.org/2000/svg">
<path d="M19.562 12.098L21.093 14.75C22.06 16.424 21.486 18.565 19.813 19.531C19.28 19.838 18.677 20 18.063 20H16V22L11 18.5L16 15V17H18.062C18.15 17 18.236 16.977 18.312 16.933C18.525 16.81 18.613 16.555 18.533 16.332L18.495 16.25L16.964 13.598L19.562 12.098ZM7.73699 9.384L8.26699 15.464L6.53699 14.464L5.50499 16.25C5.46099 16.326 5.43799 16.412 5.43799 16.5C5.43799 16.745 5.61499 16.95 5.84799 16.992L5.93799 17H8.99999V20H5.93799C4.00499 20 2.43799 18.433 2.43799 16.5C2.43799 15.886 2.59999 15.282 2.90699 14.75L3.93799 12.964L2.20599 11.964L7.73599 9.384H7.73699ZM13.75 2.969C14.282 3.276 14.724 3.718 15.031 4.25L16.061 6.036L17.794 5.036L17.264 11.116L11.732 8.536L13.464 7.536L12.433 5.75C12.389 5.674 12.326 5.61 12.25 5.567C12.037 5.444 11.772 5.495 11.619 5.677L11.567 5.75L10.037 8.402L7.43799 6.902L8.96799 4.25C9.93499 2.576 12.076 2.002 13.75 2.969Z" fill="white"/>
</svg>
